<?xml version="1.0" standalone="no"?>
<!DOCTYPE svg PUBLIC "-//W3C//DTD SVG 20010904//EN"
 "http://www.w3.org/TR/2001/REC-SVG-20010904/DTD/svg10.dtd">
<svg version="1.0" xmlns="http://www.w3.org/2000/svg"
 width="89.000000pt" height="89.000000pt" viewBox="0 0 89.000000 89.000000"
 preserveAspectRatio="xMidYMid meet">
<metadata>
Created by potrace 1.14, written by Peter Selinger 2001-2017
</metadata>
<g transform="translate(0.000000,89.000000) scale(0.100000,-0.100000)"
fill="#000000" stroke="none">
<path d="M490 869 c-14 -12 -52 -46 -85 -78 -90 -83 -246 -225 -255 -231 -5
-3 -7 -46 -7 -97 l2 -91 185 -186 185 -187 113 3 112 3 -230 230 -230 230 43
40 c23 22 67 63 98 90 135 122 247 223 284 257 l40 37 -115 0 c-101 0 -118 -2
-140 -20z"/>
</g>
</svg>
